<?xml version="1.0" encoding="utf-8"?>
<!-- Generator: Adobe Illustrator 16.0.3, SVG Export Plug-In . SVG Version: 6.00 Build 0)  -->
<!DOCTYPE svg PUBLIC "-//W3C//DTD SVG 1.1//EN" "http://www.w3.org/Graphics/SVG/1.1/DTD/svg11.dtd">
<svg version="1.1" id="Ebene_1" xmlns="http://www.w3.org/2000/svg" xmlns:xlink="http://www.w3.org/1999/xlink" x="0px" y="0px"
	 width="68.517px" height="53.033px" viewBox="0 0 68.517 53.033" enable-background="new 0 0 68.517 53.033" xml:space="preserve">
<g>
	<path fill="#FDB913" d="M40.567,28.204c-1.172,3.551-5.004,5.484-8.559,4.313c-3.556-1.174-5.488-5.004-4.313-8.558
		c1.173-3.554,5.004-5.485,8.558-4.312C39.808,20.817,41.737,24.653,40.567,28.204"/>
	<path fill="none" stroke="#FFFFFF" stroke-width="1.119" stroke-linecap="round" stroke-linejoin="round" d="M3.476,49.446
		c1.182-3.438,2.956-6.557,5.216-9.305c2.482-3.031,5.549-5.615,9.05-7.715c2.185-1.307,4.541-2.422,7.026-3.334"/>
	<path fill="none" stroke="#FFFFFF" stroke-width="1.119" stroke-linecap="round" stroke-linejoin="round" d="M65.041,3.587
		c-1.181,3.438-2.953,6.553-5.215,9.31c-2.479,3.023-5.552,5.612-9.052,7.705c-2.185,1.311-4.539,2.426-7.025,3.336"/>
</g>
</svg>
