<?xml version="1.0" encoding="utf-8"?>
<!-- Generator: Adobe Illustrator 16.0.3, SVG Export Plug-In . SVG Version: 6.00 Build 0)  -->
<!DOCTYPE svg PUBLIC "-//W3C//DTD SVG 1.1//EN" "http://www.w3.org/Graphics/SVG/1.1/DTD/svg11.dtd">
<svg version="1.1" id="Ebene_1" xmlns="http://www.w3.org/2000/svg" xmlns:xlink="http://www.w3.org/1999/xlink" x="0px" y="0px"
	 width="225.367px" height="53.033px" viewBox="0 0 225.367 53.033" enable-background="new 0 0 225.367 53.033"
	 xml:space="preserve">
<g>
	<g>
		<path fill="#FFFFFF" d="M0,0h1.225v6.751h0.036c0.8-1.163,2.229-1.663,3.381-1.663c2.711,0,4.624,1.937,4.624,4.539
			s-1.913,4.538-4.624,4.538c-1.151,0-2.581-0.499-3.381-1.661H1.225v1.438H0V0z M4.642,6.197c-2.005,0-3.473,1.494-3.473,3.43
			c0,1.937,1.468,3.432,3.473,3.432c2.025,0,3.287-1.495,3.287-3.432C7.929,7.691,6.667,6.197,4.642,6.197"/>
	</g>
	<g>
		<path fill="#FFFFFF" d="M12.199,9.96c0.151,1.732,1.468,3.099,3.193,3.099c1.301,0,2.305-0.72,2.787-1.495l0.948,0.775
			c-1.021,1.292-2.304,1.826-3.735,1.826c-2.578,0-4.493-1.935-4.493-4.538c0-2.602,1.915-4.538,4.383-4.538
			c2.639,0.021,4.161,1.956,4.161,4.318V9.96H12.199z M18.106,8.965c0-1.643-1.059-2.768-2.824-2.768
			c-1.597,0-3.046,1.348-3.046,2.768H18.106z"/>
	</g>
	<g>
		<polygon fill="#FFFFFF" points="27.631,6.197 22.543,12.838 27.818,12.838 27.818,13.942 20.76,13.942 20.76,13.059 25.851,6.418 
			21.021,6.418 21.021,5.312 27.631,5.312 		"/>
	</g>
	<g>
		<path fill="#FFFFFF" d="M30.474,2.878c-0.447,0-0.892-0.368-0.892-0.888c0-0.514,0.444-0.883,0.892-0.883
			c0.444,0,0.893,0.369,0.893,0.883C31.366,2.51,30.918,2.878,30.474,2.878 M31.086,13.942h-1.224v-8.63h1.224V13.942z"/>
	</g>
	<g>
		<path fill="#FFFFFF" d="M34.169,8.004c0-0.774-0.037-1.44-0.073-2.692H35.3v1.604h0.039c0.353-0.923,1.262-1.827,2.784-1.827
			c0.354,0,0.649,0.038,0.912,0.111l-0.242,1.2c-0.148-0.057-0.37-0.092-0.706-0.092c-1.857,0-2.693,1.604-2.693,2.766v4.867h-1.225
			V8.004z"/>
	</g>
	<g>
		<polygon fill="#FFFFFF" points="41.43,9.202 45.534,5.312 47.372,5.312 43.046,9.259 47.837,13.942 45.939,13.942 41.43,9.406 
			41.43,13.942 40.203,13.942 40.203,0.001 41.43,0.001 		"/>
	</g>
	<g>
		<path fill="#FFFFFF" d="M53.761,7.358c-0.373-0.701-0.985-1.161-1.877-1.161c-0.854,0-1.799,0.367-1.799,1.291
			c0,0.811,0.572,1.105,1.707,1.364l1.245,0.295c1.205,0.277,2.115,1.146,2.115,2.362c0,1.881-1.689,2.656-3.378,2.656
			c-1.319,0-2.526-0.461-3.345-1.68l1.059-0.72c0.502,0.778,1.262,1.293,2.286,1.293c1.001,0,2.041-0.442,2.041-1.44
			c0-0.864-0.744-1.161-1.65-1.382L50.974,9.96c-0.594-0.148-2.228-0.628-2.228-2.269c0-1.789,1.578-2.602,3.213-2.602
			c1.207,0,2.339,0.426,2.896,1.553L53.761,7.358z"/>
	</g>
	<g>
		<polygon fill="#FFFFFF" points="58.291,9.202 62.396,5.312 64.234,5.312 59.907,9.259 64.698,13.942 62.804,13.942 58.291,9.406 
			58.291,13.942 57.064,13.942 57.064,0.001 58.291,0.001 		"/>
	</g>
	<g>
		<rect x="66.296" fill="#FFFFFF" width="1.226" height="13.942"/>
	</g>
	<g>
		<path fill="#FFFFFF" d="M71.366,2.878c-0.447,0-0.892-0.368-0.892-0.888c0-0.514,0.444-0.883,0.892-0.883
			c0.443,0,0.89,0.369,0.89,0.883C72.256,2.51,71.81,2.878,71.366,2.878 M71.979,13.942h-1.226v-8.63h1.226V13.942z"/>
	</g>
	<g>
		<path fill="#FFFFFF" d="M76.101,5.313c0.056,0.461,0.056,0.922,0.056,1.383h0.036c0.538-0.941,1.767-1.607,2.916-1.607
			c2.21,0,3.27,1.239,3.27,3.377v5.477h-1.227V9.167c0-1.917-0.538-2.969-2.357-2.969c-0.259,0-2.638,0.165-2.638,3.318v4.427H74.93
			V7.21c0-0.461-0.054-1.271-0.093-1.898L76.101,5.313L76.101,5.313z"/>
	</g>
	<g>
		<path fill="#FFFFFF" d="M86.148,2.878c-0.448,0-0.893-0.368-0.893-0.888c0-0.514,0.444-0.883,0.893-0.883
			c0.444,0,0.89,0.369,0.89,0.883C87.038,2.51,86.593,2.878,86.148,2.878 M86.76,13.942h-1.228v-8.63h1.228V13.942z"/>
	</g>
	<g>
		<polygon fill="#FFFFFF" points="90.938,9.202 95.041,5.312 96.88,5.312 92.555,9.259 97.346,13.942 95.449,13.942 90.938,9.406 
			90.938,13.942 89.713,13.942 89.713,0.001 90.938,0.001 		"/>
	</g>
	<g>
		<path fill="#FFFFFF" d="M99.505,9.96c0.148,1.732,1.468,3.099,3.193,3.099c1.302,0,2.306-0.72,2.786-1.495l0.949,0.775
			c-1.022,1.292-2.303,1.826-3.735,1.826c-2.581,0-4.494-1.935-4.494-4.538c0-2.602,1.913-4.538,4.383-4.538
			c2.637,0.021,4.159,1.956,4.159,4.318V9.96H99.505z M105.411,8.965c0-1.643-1.059-2.768-2.824-2.768
			c-1.597,0-3.043,1.348-3.043,2.768H105.411z"/>
	</g>
	<g>
		<path fill="#FFFFFF" d="M110.022,5.313c0.057,0.461,0.057,0.922,0.057,1.383h0.037c0.539-0.941,1.765-1.607,2.917-1.607
			c2.207,0,3.266,1.239,3.266,3.377v5.477h-1.223V9.167c0-1.917-0.539-2.969-2.361-2.969c-0.26,0-2.636,0.165-2.636,3.318v4.427
			h-1.227V7.21c0-0.461-0.056-1.271-0.093-1.898L110.022,5.313L110.022,5.313z"/>
	</g>
	<g>
		<path fill="#FFFFFF" d="M5.37,27.819c-0.372-0.701-0.984-1.161-1.874-1.161c-0.855,0-1.802,0.366-1.802,1.291
			c0,0.811,0.576,1.104,1.708,1.364l1.243,0.293c1.207,0.278,2.119,1.146,2.119,2.363c0,1.881-1.691,2.656-3.381,2.656
			c-1.319,0-2.526-0.464-3.343-1.679l1.058-0.722c0.502,0.775,1.266,1.291,2.285,1.291c1.002,0,2.042-0.439,2.042-1.439
			c0-0.867-0.741-1.159-1.651-1.378L2.585,30.42c-0.596-0.147-2.228-0.627-2.228-2.269c0-1.789,1.578-2.602,3.212-2.602
			c1.206,0,2.34,0.425,2.896,1.551L5.37,27.819z"/>
	</g>
	<g>
		<path fill="#FFFFFF" d="M14.769,27.8c-0.409-0.627-1.209-1.143-2.174-1.143c-2.025-0.037-3.269,1.455-3.269,3.429
			s1.243,3.47,3.269,3.433c0.965,0,1.765-0.519,2.174-1.146l1.001,0.758c-0.853,0.994-2.005,1.474-3.175,1.494
			c-2.842,0.04-4.606-1.937-4.606-4.539c0-2.599,1.765-4.572,4.606-4.536c1.17,0.018,2.322,0.498,3.175,1.495L14.769,27.8z"/>
	</g>
	<g>
		<path fill="#FFFFFF" d="M17.146,20.461h1.224v6.695h0.038c0.537-0.94,1.764-1.605,2.916-1.605c2.209,0,3.269,1.236,3.269,3.375
			v5.478h-1.227v-4.778c0-1.915-0.538-2.967-2.357-2.967c-0.261,0-2.639,0.166-2.639,3.321v4.424h-1.224V20.461z"/>
	</g>
	<g>
		<polygon fill="#FFFFFF" points="27.599,25.773 29.605,32.781 29.643,32.781 31.962,25.773 33.226,25.773 35.549,32.781 
			35.584,32.781 37.59,25.773 39.039,25.773 36.29,34.403 34.916,34.403 32.612,27.323 32.576,27.323 30.273,34.403 28.9,34.403 
			26.15,25.773 		"/>
	</g>
	<g>
		<path fill="#FFFFFF" d="M45.965,29.11v-0.223c0-1.49-0.726-2.23-2.229-2.23c-1.021,0-1.913,0.351-2.658,1.013l-0.74-0.865
			c0.799-0.81,2.043-1.255,3.679-1.255c1.707,0,3.175,0.96,3.175,3.063v3.854c0,0.665,0.073,1.477,0.147,1.938H46.15
			c-0.073-0.426-0.112-0.939-0.112-1.403h-0.036c-0.706,1.146-1.671,1.625-3.064,1.625c-1.543,0-2.988-0.851-2.988-2.522
			c0-2.808,3.322-2.992,5.402-2.992H45.965z M45.332,30.104c-1.243,0-4.046,0.094-4.046,1.828c0,1.146,1.06,1.586,2.041,1.586
			c1.784,0,2.638-1.256,2.638-2.787v-0.627H45.332z"/>
	</g>
	<g>
		<path fill="#FFFFFF" d="M49.792,20.461h1.223v6.749h0.039c0.798-1.161,2.228-1.661,3.381-1.661c2.711,0,4.622,1.938,4.622,4.538
			c0,2.604-1.911,4.539-4.622,4.539c-1.153,0-2.583-0.5-3.381-1.664h-0.039v1.439h-1.223V20.461z M54.435,26.658
			c-2.007,0-3.475,1.493-3.475,3.429c0,1.938,1.468,3.432,3.475,3.432c2.022,0,3.286-1.494,3.286-3.432
			C57.721,28.151,56.457,26.658,54.435,26.658"/>
	</g>
	<g>
		<path fill="#FFFFFF" d="M61.749,30.42c0.149,1.735,1.469,3.097,3.194,3.097c1.302,0,2.303-0.719,2.786-1.492l0.946,0.773
			c-1.021,1.292-2.303,1.826-3.732,1.826c-2.581,0-4.494-1.936-4.494-4.539c0-2.6,1.913-4.535,4.383-4.535
			c2.636,0.019,4.16,1.956,4.16,4.315v0.555H61.749z M67.654,29.423c0-1.641-1.058-2.766-2.822-2.766
			c-1.599,0-3.044,1.347-3.044,2.766H67.654z"/>
	</g>
	<g>
		<path fill="#FFFFFF" d="M72.149,25.773c0.056,0.461,0.056,0.922,0.056,1.383h0.039c0.535-0.94,1.764-1.605,2.912-1.605
			c2.212,0,3.27,1.235,3.27,3.375v5.478h-1.224v-4.779c0-1.914-0.542-2.966-2.36-2.966c-0.258,0-2.637,0.165-2.637,3.321v4.424
			h-1.226v-6.732c0-0.461-0.056-1.273-0.094-1.898H72.149z"/>
	</g>
	<g>
		<path fill="#FDB913" d="M115.943,29.74c-1.172,3.551-5.004,5.483-8.559,4.313c-3.556-1.174-5.488-5.005-4.313-8.559
			c1.173-3.554,5.004-5.485,8.558-4.312C115.184,22.353,117.113,26.189,115.943,29.74"/>
	</g>
	<g>
		<path fill="none" stroke="#FFFFFF" stroke-width="1.119" stroke-linecap="round" stroke-linejoin="round" d="M78.852,50.981
			c1.182-3.437,2.956-6.557,5.216-9.305c2.482-3.031,5.549-5.615,9.05-7.714c2.185-1.307,4.541-2.422,7.026-3.335"/>
	</g>
	<g>
		<path fill="none" stroke="#FFFFFF" stroke-width="1.119" stroke-linecap="round" stroke-linejoin="bevel" d="M140.417,5.123
			c-1.181,3.438-2.953,6.553-5.215,9.309c-2.479,3.024-5.552,5.613-9.052,7.706c-2.185,1.31-4.539,2.426-7.025,3.335"/>
	</g>
	<g>
		<path fill="#FDB913" d="M140.539,27.752c0-0.64-0.055-1.262-0.092-1.901h1.299v1.298h0.037c0.585-0.988,1.736-1.518,2.761-1.518
			c0.933,0,2.157,0.31,2.726,1.774c0.49-1.098,1.662-1.774,2.813-1.774c2.176,0,3.218,1.223,3.218,3.346v5.43h-1.206v-4.991
			c0-1.737-0.492-2.689-2.156-2.689c-1.791,0-2.414,1.538-2.414,3.127v4.553h-1.207v-4.991c0-1.737-0.493-2.689-2.155-2.689
			c-0.294,0-2.414,0.166-2.414,3.293v4.387h-1.207L140.539,27.752L140.539,27.752z"/>
	</g>
	<g>
		<path fill="#FDB913" d="M156.952,30.458c0.146,1.717,1.444,3.072,3.146,3.072c1.279,0,2.266-0.715,2.743-1.482l0.933,0.768
			c-1.008,1.281-2.269,1.812-3.676,1.812c-2.541,0-4.425-1.921-4.425-4.499c0-2.577,1.884-4.496,4.313-4.496
			c2.598,0.017,4.096,1.938,4.096,4.277v0.549H156.952z M162.766,29.47c0-1.626-1.041-2.742-2.777-2.742
			c-1.573,0-2.998,1.335-2.998,2.742H162.766z"/>
	</g>
	<g>
		<path fill="#FDB913" d="M166.273,20.586h1.207v6.636h0.037c0.528-0.933,1.736-1.59,2.871-1.59c2.174,0,3.217,1.224,3.217,3.346
			v5.43h-1.207v-4.736c0-1.902-0.529-2.944-2.321-2.944c-0.257,0-2.597,0.166-2.597,3.292v4.389h-1.207V20.586z"/>
	</g>
	<g>
		<path fill="#FDB913" d="M176.564,28.521c0-0.769-0.037-1.427-0.073-2.669h1.188v1.589h0.035c0.35-0.914,1.243-1.81,2.742-1.81
			c0.348,0,0.641,0.038,0.896,0.111l-0.237,1.187c-0.146-0.055-0.365-0.091-0.694-0.091c-1.829,0-2.65,1.589-2.65,2.743v4.825
			h-1.207V28.521L176.564,28.521z"/>
	</g>
	<g>
		<path fill="#FDB913" d="M188.738,25.851c0.054,0.458,0.054,0.913,0.054,1.371h0.038c0.529-0.932,1.736-1.589,2.867-1.589
			c2.177,0,3.221,1.224,3.221,3.345v5.429h-1.207v-4.734c0-1.901-0.529-2.944-2.322-2.944c-0.258,0-2.597,0.164-2.597,3.292v4.386
			h-1.206v-6.673c0-0.457-0.055-1.26-0.091-1.882H188.738z"/>
	</g>
	<g>
		<path fill="#FDB913" d="M203.23,29.16v-0.22c0-1.482-0.713-2.213-2.191-2.213c-1.005,0-1.885,0.349-2.614,1.006l-0.731-0.858
			c0.785-0.805,2.012-1.243,3.619-1.243c1.683,0,3.129,0.95,3.129,3.033v3.822c0,0.656,0.072,1.461,0.146,1.92h-1.172
			c-0.071-0.422-0.108-0.934-0.108-1.391h-0.035c-0.695,1.133-1.647,1.609-3.02,1.609c-1.516,0-2.941-0.842-2.941-2.505
			c0-2.778,3.271-2.962,5.318-2.962L203.23,29.16L203.23,29.16z M199.43,21.646c0.549,0,0.934,0.458,0.934,0.933
			c0,0.474-0.385,0.932-0.934,0.932c-0.55,0-0.933-0.458-0.933-0.932C198.497,22.104,198.88,21.646,199.43,21.646 M202.609,30.147
			c-1.226,0-3.984,0.09-3.984,1.81c0,1.134,1.043,1.571,2.012,1.571c1.754,0,2.594-1.242,2.594-2.762v-0.619H202.609z
			 M202.939,21.646c0.549,0,0.933,0.458,0.933,0.933c0,0.474-0.384,0.932-0.933,0.932s-0.933-0.458-0.933-0.932
			C202.008,22.104,202.391,21.646,202.939,21.646"/>
	</g>
	<g>
		<path fill="#FDB913" d="M207.234,20.586h1.207v6.636h0.035c0.529-0.933,1.737-1.59,2.871-1.59c2.176,0,3.219,1.224,3.219,3.346
			v5.43h-1.207v-4.736c0-1.902-0.53-2.944-2.322-2.944c-0.256,0-2.596,0.166-2.596,3.292v4.389h-1.207V20.586L207.234,20.586z"/>
	</g>
	<g>
		<path fill="#FDB913" d="M218.236,30.458c0.146,1.717,1.445,3.072,3.146,3.072c1.279,0,2.267-0.715,2.743-1.482l0.934,0.768
			c-1.009,1.281-2.27,1.812-3.677,1.812c-2.541,0-4.425-1.921-4.425-4.499c0-2.577,1.884-4.496,4.314-4.496
			c2.597,0.017,4.097,1.938,4.097,4.277v0.549H218.236z M224.05,29.47c0-1.626-1.042-2.742-2.776-2.742
			c-1.573,0-2.998,1.335-2.998,2.742H224.05z"/>
	</g>
</g>
</svg>
