<?xml version="1.0" encoding="utf-8"?>
<!-- Generator: Adobe Illustrator 16.0.0, SVG Export Plug-In . SVG Version: 6.00 Build 0)  -->
<!DOCTYPE svg PUBLIC "-//W3C//DTD SVG 1.1//EN" "http://www.w3.org/Graphics/SVG/1.1/DTD/svg11.dtd">
<svg version="1.1" id="Ebene_1" xmlns="http://www.w3.org/2000/svg" xmlns:xlink="http://www.w3.org/1999/xlink" x="0px" y="0px"
	 width="268.276px" height="53.033px" viewBox="-26.147 0 268.276 53.033" enable-background="new -26.147 0 268.276 53.033"
	 xml:space="preserve">
<g>
	<g>
		<path fill="#FDB913" d="M111.326,28.205c-1.172,3.551-5.004,5.483-8.56,4.313c-3.556-1.174-5.488-5.005-4.313-8.559
			c1.173-3.554,5.004-5.485,8.558-4.312C110.566,20.818,112.496,24.654,111.326,28.205"/>
	</g>
	<g>
		<path fill="none" stroke="#6E6E6E" stroke-width="1.119" stroke-linecap="round" stroke-linejoin="round" d="M74.235,49.446
			c1.182-3.438,2.956-6.558,5.216-9.306c2.482-3.03,5.549-5.614,9.05-7.714c2.185-1.307,4.541-2.422,7.026-3.335"/>
	</g>
	<g>
		<path fill="none" stroke="#6E6E6E" stroke-width="1.119" stroke-linecap="round" stroke-linejoin="bevel" d="M135.8,3.588
			c-1.181,3.438-2.953,6.553-5.215,9.309c-2.479,3.024-5.552,5.613-9.052,7.706c-2.186,1.31-4.539,2.426-7.025,3.335"/>
	</g>
</g>
<g>
	<path fill="#6D6E71" d="M-16.133,23.115c-0.594-0.972-1.862-1.673-3.239-1.673c-2.942,0-4.832,2.213-4.832,5.102
		c0,2.861,1.862,5.075,4.805,5.075c1.593,0,2.699-0.676,3.428-1.646l1.376,1.025c-1.08,1.322-2.618,2.186-4.805,2.186
		c-4.076,0-6.748-2.834-6.748-6.64s2.672-6.64,6.748-6.64c1.701,0,3.617,0.729,4.697,2.187L-16.133,23.115z"/>
	<path fill="#6D6E71" d="M-5.926,33.183c-3.914,0-6.721-2.834-6.721-6.64s2.807-6.64,6.721-6.64c3.941,0,6.748,2.834,6.748,6.64
		S-1.985,33.183-5.926,33.183z M-5.926,21.441c-2.916,0-4.778,2.268-4.778,5.102c0,2.835,1.862,5.075,4.778,5.075
		c2.942,0,4.805-2.24,4.805-5.075C-1.122,23.709-2.984,21.441-5.926,21.441z"/>
	<path fill="#6D6E71" d="M6.413,20.227c0.054,0.675,0.108,1.62,0.108,2.16h0.054c0.702-1.458,2.538-2.483,4.319-2.483
		c3.212,0,4.805,2.079,4.805,5.209v7.747h-1.835v-6.991c0-2.645-0.783-4.427-3.428-4.427c-1.943,0-3.833,1.565-3.833,4.939v6.479
		H4.767v-9.853c0-0.675-0.027-1.917-0.108-2.78H6.413z"/>
	<path fill="#6D6E71" d="M26.149,21.765h-3.563v7.369c0,1.891,0.783,2.322,1.889,2.322c0.513,0,1.107-0.162,1.593-0.405l0.081,1.593
		c-0.648,0.242-1.323,0.378-2.16,0.378c-1.35,0-3.239-0.594-3.239-3.374v-7.882h-2.618v-1.539h2.618v-3.563h1.836v3.563h3.563
		V21.765z"/>
	<path fill="#6D6E71" d="M28.904,20.227h1.754c0.054,0.675,0.108,1.62,0.108,2.16h0.054c0.702-1.458,2.268-2.483,4.049-2.483
		c0.459,0,0.837,0.027,1.215,0.135l-0.243,1.728c-0.216-0.081-0.81-0.162-1.295-0.162c-1.943,0-3.698,1.403-3.698,4.777v6.479
		h-1.835v-9.853C29.012,22.332,28.985,21.09,28.904,20.227z"/>
	<path fill="#6D6E71" d="M46.371,24.708c0-2.187-1.188-3.266-3.374-3.266c-1.484,0-2.861,0.594-3.752,1.484l-1.026-1.214
		c1.026-1.026,2.808-1.809,4.967-1.809c2.726,0,4.913,1.512,4.913,4.589v5.533c0,0.973,0.081,2.133,0.216,2.835h-1.647
		c-0.108-0.62-0.189-1.376-0.189-2.052h-0.054c-1.161,1.674-2.564,2.375-4.589,2.375c-1.917,0-4.373-1.025-4.373-3.832
		c0-3.887,4.292-4.238,8.908-4.238V24.708z M45.832,26.543c-2.997,0-6.479,0.324-6.479,2.727c0,1.808,1.539,2.402,2.969,2.402
		c2.591,0,4.049-1.944,4.049-4.185v-0.944H45.832z"/>
	<path fill="#6D6E71" d="M61.923,23.115c-0.594-0.972-1.862-1.673-3.239-1.673c-2.942,0-4.832,2.213-4.832,5.102
		c0,2.861,1.862,5.075,4.805,5.075c1.593,0,2.699-0.676,3.428-1.646l1.376,1.025c-1.08,1.322-2.618,2.186-4.805,2.186
		c-4.076,0-6.748-2.834-6.748-6.64s2.672-6.64,6.748-6.64c1.701,0,3.617,0.729,4.697,2.187L61.923,23.115z"/>
	<path fill="#6D6E71" d="M72.022,21.765h-3.563v7.369c0,1.891,0.783,2.322,1.889,2.322c0.513,0,1.107-0.162,1.593-0.405l0.081,1.593
		c-0.648,0.242-1.323,0.378-2.16,0.378c-1.35,0-3.239-0.594-3.239-3.374v-7.882h-2.618v-1.539h2.618v-3.563h1.836v3.563h3.563
		V21.765z"/>
</g>
<g>
	<path fill="#FDB913" d="M140.152,19.902c1.376,0,3.05,0.514,3.887,2.673c0.863-1.728,2.402-2.673,4.427-2.673
		c3.212,0,4.805,2.079,4.805,5.21v7.747h-1.835v-6.991c0-2.646-0.892-4.427-3.267-4.427c-2.646,0-3.59,2.349-3.59,4.696v6.722
		h-1.836V25.49c0-2.456-0.594-4.049-3.05-4.049c-1.755,0-3.671,1.565-3.671,4.939v6.479h-1.836v-9.853
		c0-0.675-0.026-1.916-0.107-2.78h1.754c0.055,0.675,0.108,1.62,0.108,2.159h0.054C136.724,20.929,138.344,19.902,140.152,19.902z"
		/>
	<path fill="#FDB913" d="M165.991,24.708c0-2.187-1.188-3.267-3.374-3.267c-1.485,0-2.861,0.594-3.752,1.484l-1.026-1.215
		c1.026-1.025,2.808-1.809,4.967-1.809c2.727,0,4.913,1.512,4.913,4.589v5.534c0,0.972,0.081,2.132,0.216,2.834h-1.646
		c-0.108-0.621-0.189-1.377-0.189-2.052h-0.054c-1.161,1.674-2.564,2.376-4.589,2.376c-1.916,0-4.373-1.026-4.373-3.833
		c0-3.888,4.292-4.238,8.908-4.238V24.708z M165.451,26.543c-2.996,0-6.479,0.324-6.479,2.727c0,1.809,1.539,2.402,2.97,2.402
		c2.591,0,4.049-1.943,4.049-4.184v-0.945H165.451z"/>
	<path fill="#FDB913" d="M174.092,20.227c0.054,0.675,0.107,1.62,0.107,2.159h0.055c0.701-1.457,2.537-2.483,4.318-2.483
		c3.212,0,4.805,2.079,4.805,5.21v7.747h-1.835v-6.991c0-2.646-0.783-4.427-3.429-4.427c-1.943,0-3.833,1.565-3.833,4.939v6.479
		h-1.835v-9.853c0-0.675-0.027-1.916-0.108-2.78H174.092z"/>
	<path fill="#FDB913" d="M196.096,24.708c0-2.187-1.188-3.267-3.374-3.267c-1.485,0-2.861,0.594-3.752,1.484l-1.026-1.215
		c1.026-1.025,2.808-1.809,4.967-1.809c2.727,0,4.913,1.512,4.913,4.589v5.534c0,0.972,0.081,2.132,0.216,2.834h-1.646
		c-0.108-0.621-0.189-1.377-0.189-2.052h-0.054c-1.161,1.674-2.564,2.376-4.589,2.376c-1.916,0-4.373-1.026-4.373-3.833
		c0-3.888,4.292-4.238,8.908-4.238V24.708z M195.556,26.543c-2.996,0-6.479,0.324-6.479,2.727c0,1.809,1.539,2.402,2.97,2.402
		c2.591,0,4.049-1.943,4.049-4.184v-0.945H195.556z"/>
	<path fill="#FDB913" d="M203.226,35.396c0.998,1.296,2.915,2.321,4.831,2.321c3.617,0,4.94-2.24,4.94-4.967v-2.375h-0.055
		c-0.972,1.565-2.942,2.483-4.777,2.483c-3.941,0-6.532-2.727-6.532-6.424c0-3.591,2.591-6.533,6.532-6.533
		c1.835,0,3.779,0.892,4.777,2.511h0.055v-2.187h1.835v12.524c0,2.754-1.269,6.587-6.856,6.587c-2.321,0-4.588-0.972-6.073-2.537
		L203.226,35.396z M208.354,31.294c2.835,0,4.859-1.998,4.859-4.913c0-2.646-2.024-4.939-4.859-4.939
		c-3.05,0-4.777,2.294-4.777,4.939S205.304,31.294,208.354,31.294z"/>
	<path fill="#FDB913" d="M231.086,27.029h-10.474c0.055,2.537,2.024,4.589,4.616,4.589c1.89,0,3.347-1.053,4.049-2.187l1.377,1.079
		c-1.485,1.89-3.348,2.673-5.426,2.673c-3.752,0-6.532-2.835-6.532-6.641s2.78-6.641,6.37-6.641c3.968,0,6.047,2.808,6.047,6.263
		C231.113,26.408,231.113,26.705,231.086,27.029z M229.25,25.571c-0.107-2.375-1.565-4.13-4.184-4.13
		c-2.456,0-4.265,1.971-4.427,4.13H229.25z"/>
	<path fill="#FDB913" d="M234.949,20.227h1.755c0.054,0.675,0.107,1.62,0.107,2.159h0.055c0.701-1.457,2.267-2.483,4.049-2.483
		c0.459,0,0.837,0.027,1.214,0.136l-0.242,1.728c-0.216-0.081-0.81-0.162-1.296-0.162c-1.943,0-3.698,1.403-3.698,4.777v6.479
		h-1.835v-9.853C235.058,22.332,235.03,21.091,234.949,20.227z"/>
</g>
</svg>
