<?xml version="1.0" encoding="utf-8"?>
<!-- Generator: Adobe Illustrator 16.0.0, SVG Export Plug-In . SVG Version: 6.00 Build 0)  -->
<!DOCTYPE svg PUBLIC "-//W3C//DTD SVG 1.1//EN" "http://www.w3.org/Graphics/SVG/1.1/DTD/svg11.dtd">
<svg version="1.1" id="Ebene_3" xmlns="http://www.w3.org/2000/svg" xmlns:xlink="http://www.w3.org/1999/xlink" x="0px" y="0px"
	 width="512px" height="512px" viewBox="0 0 512 512" enable-background="new 0 0 512 512" xml:space="preserve">
<g>
	<g>
		<path fill="#3C3C3B" d="M498.027,223.725L372.589,104.963c-16.479-15.602-29.785-8.531-29.785,15.51v85.573l-76.304,1.703
			l-33.22,0.741l-115.384,2.574v89.87l115.384,2.574l33.22,0.741l76.304,1.703v85.573c0,24.041,13.306,31.111,29.785,15.511
			l125.438-118.763C516.656,270.637,516.656,241.363,498.027,223.725z"/>
		<g>
			<path fill="none" d="M498.027,223.725L372.589,104.963c-5.938-5.622-11.468-8.301-16.106-8.301
				c-8.236,0-13.679,8.433-13.679,23.811v85.573l-76.304,1.703l-33.22,0.741l-115.384,2.574v89.87l115.384,2.574l33.22,0.741
				l76.304,1.703v85.573c0,15.375,5.442,23.812,13.679,23.812c4.641,0,10.167-2.678,16.106-8.301l125.438-118.763
				C516.656,270.637,516.656,241.363,498.027,223.725z"/>
			<path fill="#3C3C3B" d="M233.281,335.068v66.195L53.468,424.23V87.77l179.813,22.965v66.193l32.551-0.74l0.669-0.016V88.338
				c0-20.284-8.493-38.505-19.174-40.744L29.756,1.995C13.5-1.413,0,16.694,0,42.521v426.96c0,25.824,13.5,43.932,29.756,40.525
				l217.57-45.601c10.681-2.238,19.174-20.462,19.174-40.744v-87.837l-0.669-0.015L233.281,335.068z"/>
		</g>
	</g>
</g>
</svg>
