<?xml version="1.0" encoding="utf-8"?>
<!-- Generator: Adobe Illustrator 16.0.3, SVG Export Plug-In . SVG Version: 6.00 Build 0)  -->
<!DOCTYPE svg PUBLIC "-//W3C//DTD SVG 1.1//EN" "http://www.w3.org/Graphics/SVG/1.1/DTD/svg11.dtd">
<svg version="1.1" id="Ebene_1" xmlns="http://www.w3.org/2000/svg" xmlns:xlink="http://www.w3.org/1999/xlink" x="0px" y="0px"
	 width="24px" height="24px" viewBox="0 0 24 24" enable-background="new 0 0 24 24" xml:space="preserve">
<path fill="none" d="M0,0h24v24H0V0z"/>
<g>
	<g>
		<path fill="#800000018000000180000001" d="M20.884,10.84l-4.505-4.265c-0.592-0.56-1.069-0.306-1.069,0.558v3.072l-2.739,0.062
			l-1.193,0.027l-4.144,0.091v3.228l4.144,0.092l1.193,0.026l2.739,0.062v3.073c0,0.863,0.478,1.116,1.069,0.557l4.505-4.264
			C21.553,12.524,21.553,11.474,20.884,10.84z"/>
		<g>
			<path d="M20.884,10.84l-4.505-4.265c-0.213-0.202-0.411-0.297-0.578-0.297c-0.296,0-0.491,0.303-0.491,0.855v3.072l-2.739,0.062
				l-1.193,0.027l-4.144,0.091v3.228l4.144,0.092l1.193,0.026l2.739,0.062v3.073c0,0.553,0.195,0.854,0.491,0.854
				c0.167,0,0.365-0.097,0.578-0.298l4.505-4.264C21.553,12.524,21.553,11.474,20.884,10.84z"/>
			<path d="M11.377,14.838v2.378l-6.458,0.825V5.959l6.458,0.825v2.377l1.168-0.028h0.024V5.979c0-0.729-0.306-1.383-0.688-1.463
				L4.068,2.878C3.485,2.756,3,3.407,3,4.333v15.333c0,0.926,0.485,1.577,1.068,1.455l7.813-1.638
				c0.382-0.08,0.688-0.734,0.688-1.464v-3.153l-0.024-0.001L11.377,14.838z"/>
		</g>
	</g>
</g>
</svg>
